<?xml version="1.0" encoding="utf-8"?>
<!-- Generator: Adobe Illustrator 22.0.0, SVG Export Plug-In . SVG Version: 6.00 Build 0)  -->
<svg version="1.1" xmlns="http://www.w3.org/2000/svg" xmlns:xlink="http://www.w3.org/1999/xlink" x="0px" y="0px"
	 viewBox="0 0 1312 600" style="enable-background:new 0 0 1312 600;" xml:space="preserve">
<style type="text/css">
	.st0{display:none;}
	.st1{fill:url(#SVGID_1_);}
	.st2{fill:#FFFFFF;}
	.st3{fill:none;stroke:#418CFF;stroke-miterlimit:10;}
	.st4{fill:url(#SVGID_2_);}
	.st5{fill:url(#SVGID_3_);}
	.st6{fill:url(#SVGID_4_);}
	.st7{fill:url(#SVGID_5_);}
	.st8{fill:url(#SVGID_6_);}
	.st9{fill:url(#SVGID_7_);}
	.st10{fill:url(#SVGID_8_);}
	.st11{fill:none;stroke:#000000;stroke-miterlimit:10;}
	.st12{font-family:'IBMPlexSans-Light';}
	.st13{font-size:48px;}
</style>
<g id="Layer_1" class="st0">
	
		<image style="display:inline;overflow:visible;" width="694" height="698" xlink:href="dice/d4.png"  transform="matrix(0.1747 0 0 0.1747 26 31)">
	</image>
	
		<image style="display:inline;overflow:visible;" width="1084" height="1084" xlink:href="dice/d6.png"  transform="matrix(0.1747 0 0 0.1747 158 6)">
	</image>
	
		<image style="display:inline;overflow:visible;" width="694" height="698" xlink:href="dice/d8.png"  transform="matrix(0.2607 0 0 0.2607 337.1261 8)">
	</image>
	
		<image style="display:inline;overflow:visible;" width="1076" height="1078" xlink:href="dice/d10.png"  transform="matrix(0.1747 0 0 0.1747 512.6781 9)">
	</image>
	
		<image style="display:inline;overflow:visible;" width="1074" height="1078" xlink:href="dice/d12.png"  transform="matrix(0.1747 0 0 0.1747 709.5863 23.402)">
	</image>
	
		<image style="display:inline;overflow:visible;" width="1020" height="1024" xlink:href="dice/d20.png"  transform="matrix(0.1319 0 0 0.1319 901 48)">
	</image>
	
		<image style="display:inline;overflow:visible;" width="1076" height="808" xlink:href="dice/d32.png"  transform="matrix(0.2007 0 0 0.2007 1064 25.5356)">
	</image>
</g>
<g id="Layer_3">
	
		<linearGradient id="SVGID_1_" gradientUnits="userSpaceOnUse" x1="571.7825" y1="604.7467" x2="1107.2593" y2="122.0634" gradientTransform="matrix(1 0 0 -1 0 602)">
		<stop  offset="0" style="stop-color:#0048DD"/>
		<stop  offset="1" style="stop-color:#7E2ECC"/>
	</linearGradient>
	<rect x="41.8" y="43.7" class="st1" width="1259.5" height="86.9"/>
</g>
<g id="Layer_2">
	<circle class="st2" cx="1219.4" cy="81.9" r="60.2"/>
	<path class="st2" d="M1020.8,36.7l46.3,25.8c2.4,1.3,3.9,3.8,4,6.5l2.6,55.4c0.1,2.8-1.3,5.5-3.7,7l-48,29.5
		c-2.4,1.5-5.3,1.5-7.8,0.2L966.8,136c-2.5-1.3-4.1-3.9-4.2-6.7l-1.9-56.4c-0.1-2.8,1.4-5.5,3.8-7l48.3-29.2
		C1015.3,35.3,1018.3,35.3,1020.8,36.7z"/>
	<path class="st3" d="M811.9,52.3c7.6-5,20.2-13.9,33-13.4c12.8,0.5,28.8,2.4,32,3.1c3.1,0.8,11,9.7,17.8,20.7
		c6.8,11,21.7,41.2,17.8,36.7c-3.9-4.5-5.5-6.3-11.8,2.9c-6.3,9.2-14.9,26.5-27.3,21c-12.3-5.5-37.8-11.3-35.9-24.8
		c1.8-13.5,3.7-40.2,0.8-32.1s-2.8,34.1-8.4,39.9s-31.5,11.8-24.4,22.3c7.1,10.5,14.2,25.8,29.4,27.2c15.2,1.4,42.5,4.5,45.4,1.9"/>
	<path class="st2" d="M844.3,39.3l33.7,4c2.6,0.3,4.9,1.7,6.2,3.9l15.9,25.2c0.2,0.3,0.3,0.5,0.4,0.8l11.9,24.3
		c1.2,2.5,1.2,5.5-0.2,7.9l-15.1,27.1c-0.6,1-1.4,2-2.3,2.7l-25.7,19.3c-1.7,1.3-3.7,1.9-5.8,1.7l-31.2-2.5
		c-2.2-0.2-4.3-1.2-5.8-2.9l-23.6-27.1c-0.7-0.8-1.2-1.7-1.6-2.7L792,95.8c-0.8-2.3-0.6-4.8,0.5-7l17.6-32.7
		c0.9-1.6,2.2-2.9,3.8-3.6l25.6-12.4C841,39.4,842.7,39.1,844.3,39.3z"/>
	<path class="st2" d="M624.6,32.1l79.6,11.2c2.1,0.3,3.9,1.6,4.8,3.6l2.5,5.4c0.5,1,0.6,2.2,0.5,3.3l-8,72.3c-0.1,1.1-0.5,2.1-1.2,3
		l-8.5,11.7c-1,1.4-2.6,2.3-4.4,2.5l-20.7,2.1c-0.6,0.1-1.3,0-1.9-0.1l-60.1-12.5c-1.9-0.4-3.5-1.6-4.3-3.3l-0.9-1.9
		c-0.5-0.9-0.7-2-0.7-3.1l3.5-79.5c0.1-1.9,1.1-3.7,2.7-4.8l12.7-8.8C621.5,32.3,623.1,31.9,624.6,32.1z"/>
	<path class="st2" d="M423.1,49.3l49.5-23.7c2-0.9,4.3-0.8,6.1,0.4L519.9,52c1.7,1.1,2.8,2.8,2.9,4.8l4.7,56.5
		c0.2,2.5-1.1,5-3.4,6.1l-53.6,27.8c-2.1,1.1-4.7,0.9-6.7-0.5l-38.9-28.8c-1.5-1.1-2.4-2.9-2.5-4.7l-3-57.8
		C419.4,52.8,420.8,50.4,423.1,49.3z"/>
	<path class="st2" d="M300.2,14.1l63.2,25.1c1.8,0.7,3,2.4,3.1,4.3l3.3,74.5c0.1,1.8-0.9,3.6-2.5,4.5L305,157.3
		c-1.4,0.8-3,0.8-4.4,0.2l-60.9-28.1c-1.6-0.8-2.7-2.4-2.8-4.2l-3.6-77.4c-0.1-2,1-3.8,2.8-4.6l60.2-28.9
		C297.5,13.7,299,13.6,300.2,14.1z"/>
	<path class="st2" d="M157.4,30.2L193,92.9c0.5,0.9,0.8,2,0.7,3.1l-2.6,51.3c-0.2,3-2.6,5.4-5.7,5.4H178c-2.6,0-4.9-1.8-5.5-4.3
		L144.4,35.4c-0.7-2.8,0.8-5.6,3.5-6.7l2.6-1C153.1,26.7,156,27.8,157.4,30.2z"/>
	<linearGradient id="SVGID_2_" gradientUnits="userSpaceOnUse" x1="1193.8539" y1="78.5845" x2="1233.7572" y2="78.5845">
		<stop  offset="0" style="stop-color:#BFDCFF"/>
		<stop  offset="1" style="stop-color:#EAD5FF"/>
	</linearGradient>
	<circle class="st4" cx="1213.8" cy="78.6" r="20"/>
	<linearGradient id="SVGID_3_" gradientUnits="userSpaceOnUse" x1="983.8991" y1="105.3929" x2="1049.2725" y2="105.3929">
		<stop  offset="0" style="stop-color:#BFDCFF"/>
		<stop  offset="1" style="stop-color:#EAD5FF"/>
	</linearGradient>
	<path class="st5" d="M1044.6,74.6h-56c-3.5,0-5.8,3.7-4.1,6.8l27.5,52.3c1.7,3.3,6.4,3.3,8.2,0.1l28.6-52.3
		C1050.4,78.4,1048.1,74.6,1044.6,74.6z"/>
	<linearGradient id="SVGID_4_" gradientUnits="userSpaceOnUse" x1="836.2347" y1="90.9" x2="904.1249" y2="90.9">
		<stop  offset="0" style="stop-color:#BFDCFF"/>
		<stop  offset="1" style="stop-color:#EAD5FF"/>
	</linearGradient>
	<path class="st6" d="M879.1,57.4l-35.3,5.9c-2.7,0.5-4.8,2.7-5,5.5l-2.5,30.7c-0.2,2.5,1.1,4.8,3.3,5.9l37,18.4
		c2.5,1.2,5.5,0.6,7.3-1.5l18.8-22.3c1.6-1.9,1.9-4.6,0.7-6.8l-18-32.8C884.1,58.2,881.6,57,879.1,57.4z"/>
	<linearGradient id="SVGID_5_" gradientUnits="userSpaceOnUse" x1="630.7103" y1="81.3827" x2="709.4645" y2="81.3827">
		<stop  offset="0" style="stop-color:#BFDCFF"/>
		<stop  offset="1" style="stop-color:#EAD5FF"/>
	</linearGradient>
	<path class="st7" d="M702.6,42.2l-67.7,16.4c-3.2,0.8-5,4.2-3.9,7.3l12.1,31.8c0.4,1,1.1,1.9,2,2.5l27.5,19.4
		c2.9,2,6.9,0.9,8.3-2.4L709,49.7C710.8,45.5,707,41.2,702.6,42.2z"/>
	<linearGradient id="SVGID_6_" gradientUnits="userSpaceOnUse" x1="419.7164" y1="100.5989" x2="519.4462" y2="100.5989">
		<stop  offset="0" style="stop-color:#BFDCFF"/>
		<stop  offset="1" style="stop-color:#EAD5FF"/>
	</linearGradient>
	<path class="st8" d="M515.4,54l-91.5-1.8c-3.1-0.1-5.2,3.4-3.8,6.4l42,88c1.5,3.1,5.5,3.2,7.2,0.3l49.5-86.3
		C520.5,57.7,518.6,54,515.4,54z"/>
	<linearGradient id="SVGID_7_" gradientUnits="userSpaceOnUse" x1="233.1875" y1="100.0294" x2="302.8362" y2="100.0294">
		<stop  offset="0" style="stop-color:#BFDCFF"/>
		<stop  offset="1" style="stop-color:#EAD5FF"/>
	</linearGradient>
	<path class="st9" d="M241.8,47.9l55.9,21.8c2.4,0.9,4,3.2,4,5.8l1.1,70.7c0.1,4.6-4.6,7.7-8.8,5.9l-57-24.1c-2.3-1-3.9-3.3-3.9-5.8
		V53.8C233.2,49.3,237.7,46.3,241.8,47.9z"/>
	<linearGradient id="SVGID_8_" gradientUnits="userSpaceOnUse" x1="68.4547" y1="88.7019" x2="186.3852" y2="88.7019">
		<stop  offset="0" style="stop-color:#BFDCFF"/>
		<stop  offset="1" style="stop-color:#EAD5FF"/>
	</linearGradient>
	<path class="st10" d="M140.8,25.1L70,122.4c-3.4,4.6-0.8,11.2,4.8,12.4l102.1,20.7c5.7,1.2,10.7-4.1,9.2-9.8l-31.3-118
		C153.1,21.3,144.7,19.7,140.8,25.1z"/>
	<path class="st11" d="M66.2,126.5c13.9,4.2,107.1,22.2,112.6,23.6c5.6,1.4,7-8.3,1.4-23.6c-5.6-15.3-38.9-123.7-22.2-98.7
		s41.7,73.7,41.7,73.7"/>
	<path class="st3" d="M73.2,121C85.7,102.9,144.1,2.8,151,25s40.3,139,41.7,119.6c1.4-19.5,2.8-41.7,2.8-48.7c0-2.8,1.4-9.7,5.6-9.7
		"/>
	<path class="st3" d="M233.4,119.6c-1-15-7-79,3-73s61,29,70,24s58-41,61-27s2,56,2,63s5,17-18,30s-46.5,26-47,13
		c-0.4-11.1,9.1,4.4,4.9,12.5"/>
	<path class="st11" d="M235,124.9c2.5,6.6,16.5,14.4,28.8,18.5c12.4,4.1,41.2,25.9,40.1,0c-1.1-25.9-5-72.8-1.1-74.9
		s67.8-29.3,61.1-32.5c-6.6-3.2-43.5-18.1-49.4-19.9c-6-1.8-16.7-7.8-30.9,0c-14.2,7.8-47.6,22-50.4,28.4s-7.6,0-6-4.1"/>
	<path class="st11" d="M420.3,114.4c9.5,9.5,26.6,22.1,33.7,27.7c7.1,5.5,13.7,16.1,26.9-9.8s34-62.2,38.5-68.8s6.9-10.3-10.3-11.1
		c-17.1-0.8-70.9,0-79.1,0c-8.2,0-18.2,1.1-2.6-7.9c15.5-9,37.4-16.6,41.1-19c3.7-2.4,8.8-4.9,20,2.1c28.8,18,36.1,20.8,38.5,35.6
		c2.4,14.8-2.1,59,5,58.8"/>
	<path class="st3" d="M419.3,121.8c4.7-3.9,3.9-6.9,1.3-15.8c-2.6-9-8.6-62.9-3.1-51.9c5.5,11.1,30.5,63.2,34.7,72.9
		s3.7,29.3,28.7,17.9s52.4-23.7,51.1-34.3"/>
	<path class="st3" d="M599.8,129.9c0-20.7-1.1-86,7.1-82.5c15.9,6.7,25.1,15.1,28.6,30.3c3.1,13.6,13.1,14.5-3.1,30.4
		c-16.2,15.9-42.3,23.3-23.8,27.2c15.2,3.3,56.8,15.4,76.5,11c3.1-0.7-2.9-18.7-6.8-22.6c-3.9-3.9,7.2,1.6,9,11.3
		c1.8,9.6,3.7,11.8,7.2,8.6c10.3-9.6,12.3-21.9,14.7-51.7c2.4-30,8.6-47.6-8.7-51.5s-89.9-8.5-89.3-13.3"/>
	<path class="st11" d="M626.9,24.6c-2.5,5-6.3,6.5-11.3,10c-5,3.5-14.8,9-3.5,13.5s17.7,14.6,28.3,10.3c17.2-7,66.6-20.8,66.4-11.5
		S703.5,69.2,697,84c-6.5,14.8-15.2,40.7-25.5,35c-10.3-5.8-21.8-22-29.8-14.8c-8,7.3-42.3,33.6-49.1,33.3"/>
	<path class="st11" d="M880.1,42.9c1.6,11.5,7.9,16.3-19.1,18.6c-27,2.4-26,3.1-37.5-3.4s-14.7,1.8-23.1,13.9s-12.1,19.3-8.1,28.6
		s3.4,26.2,19.4,18.8c16-7.3,16.3-14.9,32-6c15.7,8.9,35.9,9.9,30.9,24.1s-11.5,22.3-1.6,16.3c10-6,20.4-13.4,28.6-27.5
		c8.1-14.2,16.9-22.4,11-24.8c-15.5-6.4-20.4-29-24.1-35.8s-7.3-24.6-2.4-26.7"/>
	<path class="st3" d="M1085.7,131.6c-3.2-4.7-60.7,6.7-68.1,6.4c-7.4-0.2-23-43.8-33.7-57.5c-10.7-13.6,52.5-7.2,65.9-6.4
		c13.4,0.7,10.4,20.1,18.8,42.9s5,12.6-28.2,34.4c-33.2,21.8-24,9.4-23-4.5c1-13.9-46.3-13.4-55.4-14.4c-9.1-1,6.9-29.5,13.6-46.3
		S978,72.7,964.6,68s26.5-19.8,51.6-34.9"/>
	<path class="st11" d="M1016.2,170.8c-1.8-6-7.2-10.5-14.7-13.9c-7.4-3.5-35.9-21.1-36.9-21.5s-5.9-3.2-5.4-18.8
		c0.5-15.6-4.7-54.7,5.4-48.5s14.3,9.1,22.6-0.7s26.4-37.3,34.1-28.3c7.7,8.9,35.7,35.2,29.7,42.4c-5.9,7.2-41.1,61.9-32.7,60.2
		c8.4-1.7,55.5-4.2,56.5-19.3s1-57.5-4-54.2c-5,3.2-24.3,6.2-10.9,1.2c13.4-5,10.7-6.2,0-11.4c-10.7-5.2-44-21.3-43.8-28.7"/>
	<path class="st11" d="M1205.8,24.5c-5.8,5.8,2.2,9.3,8.7,13.1s4.6,17.9-2,20.8c-6.7,2.8-26.2,5.6-20.8,18.9s12.7,27.4,0.6,28.8
		s-22.8,4-20,9.9c2.8,5.8,14.7,13.9,18.3,16.5s10.5,5.4,15.9,0.8s30.8-4.2,33.3-1.2s12.5-0.8,19.3-6.9s21.8-26.6,8.9-21.4
		c-12.9,5.2-24.2,7.7-28.4-1.4s-11.3-29.6,3.2-34.1s18.1-3.6,24.4,2.2s13.5,3,10.1-6c-3.4-9.1-12.9-27.2-18.3-27.8
		c-5.4-0.6,2.6,25.6-10.3,26.6s-33.5-10.1-48.6-4.2c-15.1,5.8-41.5,13.7-37.1,25.4s9.1,23,5.6,25.6"/>
	<path class="st3" d="M1212.5,21.9c10.7-1.4,32.2,4,37.5,8.1s0.4,2.6-8.9,3.1s-19.3,3.8-18.7,11.4c0.6,7.7,10.4,19.5,9.9,27.8
		c-0.5,8.3,4.8,26-8.3,29.6s-19.3,3.4-17.3,12.3c2,8.9,18.1,25.6,35.1,8.5c16.9-17.1,25.8-19.1,29.2-32c3.4-12.9,8.9-24.2,8.7-11.9
		s-3.6,45.9-35.5,57.1c-31.8,11.2-48.7,2.7-49.2-1c-0.5-3.7,20.4,1,13.2-11.3c-7.3-12.3-17.9-19.1-24.6-19.7
		c-6.7-0.6-24-5.2-23.8-18.9c0.2-13.7,6.4-38.3,12.7-41.9s0.6,17.5,5.4,18.1c4.8,0.6-3.2-14.1-0.4-17.9s12.1-11.9,17.3-14.9"/>
	<text transform="matrix(1 0 0 1 109.3006 197.5677)" class="st12 st13">D4</text>
	<text transform="matrix(1 0 0 1 271.2362 197.5677)" class="st12 st13">D6</text>
	<text transform="matrix(1 0 0 1 440.7923 197.5677)" class="st12 st13">D8</text>
	<text transform="matrix(1 0 0 1 608.4433 197.5677)" class="st12 st13">D10</text>
	<text transform="matrix(1 0 0 1 808.4814 197.5677)" class="st12 st13">D12</text>
	<text transform="matrix(1 0 0 1 965.9717 197.5677)" class="st12 st13">D20</text>
	<text transform="matrix(1 0 0 1 1177.4406 197.5677)" class="st12 st13">D32</text>
</g>
</svg>
