<svg width="71" height="50" viewBox="0 0 71 50" fill="none" xmlns="http://www.w3.org/2000/svg">
<path d="M70.6235 4V37.1159H64.0993V23.6625H49.2962V37.1159H42.772V4H49.2962V17.3633H64.0993V4H70.6235Z" fill="white"/>
<path fill-rule="evenodd" clip-rule="evenodd" d="M31.3434 4.8099C29.7236 4.26997 27.8789 4 25.8091 4H15.7754V27.2992C16.1615 27.4769 16.5354 27.7414 16.8971 28.0925C17.6627 28.8034 18.0455 29.6835 18.0455 30.7329C18.0455 31.85 17.6627 32.7471 16.8971 33.4241C16.5354 33.7418 16.1615 33.9811 15.7754 34.1418V37.1159H22.2996V26.5872H26.6441L33.6382 37.1159H41.2422L33.5372 25.0927C34.5896 24.4862 35.4631 23.7545 36.1578 22.8976C37.0877 21.7878 37.7476 20.5579 38.1376 19.2081C38.5575 17.8583 38.7675 16.5084 38.7675 15.1586C38.7675 13.4488 38.4826 11.919 37.9126 10.5692C37.3427 9.18935 36.5028 8.0195 35.3929 7.05962C34.3131 6.06974 32.9632 5.31984 31.3434 4.8099ZM29.4087 19.793C28.7488 20.123 27.9239 20.288 26.934 20.288H22.2996V10.2992H26.979C28.1188 10.2992 29.0187 10.4942 29.6787 10.8841C30.3686 11.2741 30.8785 11.754 31.2085 12.324C31.5384 12.8939 31.7484 13.4638 31.8384 14.0337C31.9584 14.5737 32.0184 15.0236 32.0184 15.3836C32.0184 15.8635 31.9284 16.3885 31.7484 16.9584C31.5984 17.4983 31.3284 18.0232 30.9385 18.5332C30.5785 19.0431 30.0686 19.4631 29.4087 19.793Z" fill="white"/>
<path fill-rule="evenodd" clip-rule="evenodd" d="M13.4983 27.1987C12.9931 27.3696 12.5116 27.6675 12.0539 28.0925C11.3216 28.8034 10.9555 29.6835 10.9555 30.7329C10.9555 31.85 11.3216 32.7471 12.0539 33.4241C12.3856 33.7027 12.7297 33.921 13.0863 34.0789C12.8014 35.3351 12.3688 36.4824 11.7885 37.5208C10.6487 39.5606 9.05887 41.1204 7.01912 42.2002C5.00937 43.3101 2.66967 43.91 0 44V37.6558C2.03974 37.5358 3.70454 36.9059 4.99438 35.766C6.28421 34.6262 6.92913 32.7064 6.92913 30.0068V4H13.4983V27.1987Z" fill="white"/>
</svg>
