<svg id="logo" version="1.1" xmlns="http://www.w3.org/2000/svg" xmlns:xlink="http://www.w3.org/1999/xlink" x="0px" y="0px" width="280.597px" height="46.5px" viewBox="0 0 280.597 46.5" enable-background="new 0 0 280.597 46.5" xml:space="preserve" style="position: absolute; float:left; z-index:20; margin-top:3px; margin-left:10%;">
	<g>
		<g id="ussell">
			<path fill="#FFFFFF" d="M47.207,19.233h4.868v9.08c0.049,0.735,0.314,1.366,0.793,1.894c0.479,0.526,1.21,0.815,2.194,0.864
				c0.688,0,1.352-0.116,1.992-0.346c0.639-0.231,1.198-0.56,1.678-0.984c0.479-0.426,0.866-0.923,1.161-1.495
				c0.295-0.571,0.443-1.197,0.443-1.877V21.52h-2.582v-2.286h4.868v11.874h2.434v1.955h-4.647l-0.037-1.918l0.074-1.659
				c-0.492,1.18-1.285,2.12-2.378,2.821c-1.094,0.701-2.317,1.051-3.669,1.051c-1.401,0-2.507-0.378-3.318-1.135
				c-0.812-0.757-1.242-1.748-1.291-2.97V21.52h-2.582V19.233L47.207,19.233z"></path>
			<path fill="#FFFFFF" d="M70.217,28.969v1.63c0.396,0.218,0.792,0.351,1.189,0.399c0.396,0.048,0.842,0.073,1.337,0.073
				c0.124,0,0.304-0.024,0.539-0.073c0.235-0.048,0.477-0.146,0.725-0.292c0.248-0.146,0.464-0.341,0.65-0.585
				c0.186-0.244,0.291-0.573,0.315-0.987c0.024-0.536-0.118-0.944-0.427-1.225c-0.309-0.28-0.698-0.511-1.168-0.695
				c-0.47-0.182-0.983-0.354-1.539-0.513c-0.557-0.16-1.076-0.375-1.558-0.645s-0.884-0.646-1.205-1.125
				c-0.322-0.479-0.482-1.137-0.482-1.973c0-0.713,0.135-1.32,0.406-1.825c0.27-0.503,0.614-0.915,1.032-1.235
				c0.418-0.319,0.873-0.554,1.365-0.701c0.492-0.148,0.959-0.221,1.401-0.221c0.172,0,0.424,0.018,0.756,0.055
				c0.332,0.037,0.688,0.105,1.069,0.203c0.381,0.099,0.756,0.239,1.125,0.424c0.368,0.185,0.688,0.424,0.958,0.719v2.95h-2.064
				v-1.673c-0.273-0.166-0.591-0.273-0.95-0.32c-0.36-0.047-0.626-0.071-0.801-0.071c-0.571,0-1.061,0.144-1.47,0.434
				c-0.41,0.289-0.59,0.735-0.541,1.337c0.049,0.41,0.241,0.735,0.575,0.976c0.333,0.241,0.735,0.458,1.205,0.651
				c0.47,0.193,0.97,0.388,1.502,0.585c0.532,0.197,1.026,0.455,1.483,0.773c0.458,0.32,0.841,0.726,1.15,1.217
				c0.309,0.492,0.464,1.119,0.464,1.881c0,0.369-0.074,0.799-0.222,1.291c-0.147,0.492-0.393,0.958-0.737,1.4
				c-0.344,0.443-0.811,0.812-1.401,1.107c-0.59,0.294-1.34,0.442-2.25,0.442c-0.344,0-0.725-0.025-1.143-0.074
				c-0.418-0.05-0.829-0.129-1.235-0.24c-0.406-0.111-0.799-0.258-1.18-0.443c-0.381-0.184-0.695-0.411-0.94-0.682v-2.95
				L70.217,28.969L70.217,28.969z"></path>
			<path fill="#FFFFFF" d="M82.275,28.969v1.63c0.397,0.218,0.793,0.351,1.189,0.399c0.397,0.048,0.842,0.073,1.338,0.073
				c0.124,0,0.304-0.024,0.539-0.073c0.235-0.048,0.478-0.146,0.725-0.292c0.248-0.146,0.464-0.341,0.65-0.585
				c0.186-0.244,0.291-0.573,0.315-0.987c0.024-0.536-0.118-0.944-0.427-1.225c-0.309-0.28-0.699-0.511-1.168-0.695
				c-0.47-0.182-0.983-0.354-1.54-0.513s-1.076-0.375-1.558-0.645s-0.884-0.646-1.206-1.125c-0.321-0.479-0.482-1.137-0.482-1.973
				c0-0.713,0.135-1.32,0.406-1.825c0.27-0.503,0.614-0.915,1.032-1.235c0.418-0.319,0.873-0.554,1.365-0.701
				c0.492-0.148,0.958-0.221,1.401-0.221c0.172,0,0.424,0.018,0.756,0.055c0.332,0.037,0.688,0.105,1.07,0.203
				c0.381,0.099,0.756,0.239,1.125,0.424c0.369,0.185,0.688,0.424,0.959,0.719v2.95H86.7v-1.673c-0.273-0.166-0.59-0.273-0.949-0.32
				c-0.36-0.047-0.627-0.071-0.801-0.071c-0.571,0-1.061,0.144-1.47,0.434c-0.41,0.289-0.59,0.735-0.541,1.337
				c0.049,0.41,0.241,0.735,0.575,0.976c0.333,0.241,0.734,0.458,1.205,0.651c0.47,0.193,0.97,0.388,1.502,0.585
				c0.531,0.197,1.026,0.455,1.483,0.773c0.458,0.32,0.841,0.726,1.15,1.217c0.309,0.492,0.464,1.119,0.464,1.881
				c0,0.369-0.074,0.799-0.222,1.291s-0.394,0.958-0.737,1.4c-0.344,0.443-0.811,0.812-1.401,1.107c-0.59,0.294-1.34,0.442-2.25,0.442
				c-0.345,0-0.725-0.025-1.143-0.074c-0.418-0.05-0.83-0.129-1.235-0.24c-0.406-0.111-0.799-0.258-1.18-0.443
				c-0.381-0.184-0.695-0.411-0.941-0.682v-2.95L82.275,28.969L82.275,28.969z"></path>
			<path fill="#FFFFFF" d="M105.471,24.58L94.74,28.673c0.417,0.727,1.001,1.309,1.751,1.744s1.604,0.653,2.563,0.653
				c0.664,0,1.285-0.12,1.862-0.359c0.578-0.239,1.075-0.562,1.493-0.969c0.222,0.271,0.449,0.547,0.683,0.83
				c0.233,0.283,0.473,0.56,0.719,0.83c-0.64,0.614-1.359,1.094-2.158,1.438c-0.799,0.344-1.666,0.516-2.6,0.516
				c-1.008,0-1.954-0.19-2.839-0.572c-0.885-0.381-1.659-0.897-2.323-1.548c-0.664-0.651-1.187-1.414-1.567-2.287
				c-0.382-0.873-0.572-1.812-0.572-2.821c0-0.983,0.19-1.917,0.572-2.803c0.38-0.884,0.903-1.653,1.567-2.305
				c0.664-0.651,1.438-1.167,2.323-1.549c0.885-0.38,1.831-0.571,2.839-0.571c0.762,0,1.48,0.142,2.157,0.424
				c0.676,0.283,1.291,0.676,1.844,1.18c0.553,0.504,1.038,1.106,1.457,1.807C104.929,23.014,105.249,23.769,105.471,24.58z
				 M99.023,21.188c-0.769,0-1.476,0.147-2.121,0.44c-0.645,0.292-1.19,0.684-1.637,1.172c-0.447,0.489-0.782,1.05-1.004,1.685
				c-0.223,0.634-0.298,1.306-0.224,2.014c1.414-0.541,2.827-1.075,4.241-1.604c1.413-0.529,2.827-1.063,4.24-1.604
				c-0.372-0.628-0.862-1.135-1.469-1.522C100.443,21.381,99.768,21.188,99.023,21.188z"></path>
			<path fill="#FFFFFF" d="M108.162,30.886h2.766V7.691h-2.507V5.405h4.793v25.481h2.619v2.176h-7.67V30.886z"></path>
			<path fill="#FFFFFF" d="M118.414,30.886h2.766V7.691h-2.508V5.405h4.794v25.481h2.619v2.176h-7.67V30.886L118.414,30.886z"></path>
		</g>
		<g id="jr">
			<g>
				<path fill="#FFFFFF" d="M0,23.348v-2.28c0.793-0.033,1.446-0.273,1.958-0.719c0.512-0.446,0.917-0.999,1.214-1.661
					c0.297-0.661,0.496-1.38,0.595-2.156s0.148-1.495,0.148-2.156V5.849c0-1.52,0.132-2.677,0.396-3.47
					c0.264-0.793,0.627-1.363,1.091-1.71c0.462-0.347,0.982-0.545,1.561-0.594C7.542,0.025,8.162,0,8.823,0h2.33v1.982H8.526
					c-1.044,0-1.744,0.39-2.097,1.168c-0.354,0.778-0.53,2.178-0.53,4.199v7.056c0,1.358-0.098,2.477-0.293,3.355
					c-0.195,0.877-0.438,1.606-0.731,2.186c-0.292,0.581-0.626,1.036-0.999,1.367c-0.374,0.331-0.756,0.613-1.146,0.844
					c0.39,0.232,0.771,0.52,1.146,0.868c0.373,0.347,0.707,0.817,0.999,1.412c0.293,0.595,0.537,1.331,0.731,2.206
					c0.195,0.876,0.293,1.975,0.293,3.297v6.989c0,2.048,0.176,3.461,0.53,4.238c0.353,0.776,1.052,1.164,2.097,1.164h2.627v1.983
					h-2.33c-0.694,0-1.347-0.025-1.958-0.075c-0.612-0.049-1.132-0.281-1.561-0.693c-0.43-0.414-0.769-1.091-1.017-2.033
					c-0.248-0.941-0.372-2.305-0.372-4.089v-7.386c0-0.66-0.05-1.378-0.149-2.156c-0.099-0.776-0.297-1.495-0.595-2.156
					c-0.297-0.661-0.703-1.214-1.215-1.661C1.445,23.62,0.793,23.38,0,23.348z"></path>
			</g>
			<path fill="#FFFFFF" d="M9.188,7.249h8.261v22.494c0,1.377-0.216,2.594-0.645,3.651c-0.431,1.057-1.014,1.942-1.752,2.655
				c-0.738,0.712-1.61,1.266-2.618,1.66c-1.008,0.393-2.09,0.602-3.245,0.627V36.16c0.86-0.05,1.659-0.227,2.397-0.533
				c0.738-0.307,1.37-0.736,1.899-1.287c0.529-0.552,0.94-1.219,1.236-2.004c0.295-0.784,0.442-1.679,0.442-2.685V9.535H9.188V7.249z"></path>
			<path fill="#FFFFFF" d="M20.325,31.531c0-0.461,0.159-0.838,0.479-1.129c0.32-0.292,0.676-0.438,1.07-0.438
				c0.393,0,0.75,0.146,1.069,0.438c0.319,0.291,0.479,0.667,0.479,1.129c0,0.462-0.16,0.832-0.479,1.112
				c-0.32,0.279-0.677,0.419-1.069,0.419c-0.394,0-0.75-0.14-1.07-0.419C20.485,32.363,20.325,31.993,20.325,31.531z"></path>
			<path fill="#FFFFFF" d="M26.041,30.886h1.955V9.535h-1.955V7.249h7.744c0.811,0,1.696,0.129,2.655,0.387
				c0.959,0.258,1.863,0.664,2.71,1.217c0.848,0.553,1.555,1.26,2.121,2.121c0.565,0.861,0.849,1.905,0.849,3.134
				c0,1.819-0.468,3.331-1.401,4.536c-0.935,1.205-2.287,2.004-4.057,2.397l4.609,9.845h3.356v2.176h-4.794l-5.604-11.875
				c-0.271,0.024-0.541,0.037-0.812,0.037c-0.271,0-0.541,0-0.811,0h-2.324v9.661h3.946v2.176h-8.187V30.886z M30.281,18.938h3.503
				c1.18,0,2.163-0.151,2.95-0.454c0.787-0.302,1.407-0.69,1.863-1.162c0.455-0.472,0.774-0.992,0.958-1.561
				c0.185-0.569,0.277-1.12,0.277-1.652c0-0.605-0.154-1.186-0.461-1.743c-0.308-0.556-0.726-1.04-1.254-1.452
				c-0.529-0.412-1.162-0.745-1.899-0.999c-0.737-0.254-1.536-0.381-2.396-0.381h-3.54L30.281,18.938L30.281,18.938z"></path>
		</g>
		<rect id="rect1" x="46.034" y="2.157" fill="#F44336" width="81.59" height="38.517"></rect>
		<g id="uffman">
			<path fill="#FFFFFF" d="M74.995,19.233h4.868v9.08c0.049,0.735,0.313,1.366,0.792,1.894c0.479,0.526,1.211,0.815,2.194,0.864
				c0.688,0,1.352-0.116,1.991-0.346c0.64-0.231,1.199-0.56,1.679-0.984c0.479-0.426,0.866-0.923,1.161-1.495
				c0.296-0.571,0.443-1.197,0.443-1.877V21.52h-2.582v-2.286h4.868v11.874h2.434v1.955h-4.647l-0.036-1.918l0.073-1.659
				c-0.492,1.18-1.285,2.12-2.378,2.821c-1.094,0.701-2.317,1.051-3.669,1.051c-1.4,0-2.508-0.378-3.319-1.135
				s-1.242-1.748-1.291-2.97V21.52h-2.582V19.233z"></path>
			<path fill="#FFFFFF" d="M95.423,30.886h2.25V21.52h-2.25v-2.286h2.213v-5.236c0-1.376,0.215-2.593,0.646-3.65
				c0.43-1.057,1.014-1.948,1.751-2.674c0.737-0.725,1.61-1.278,2.618-1.66c1.007-0.381,2.089-0.596,3.245-0.646v2.287
				c-0.841,0.025-1.627,0.189-2.356,0.495c-0.73,0.305-1.361,0.732-1.893,1.282c-0.532,0.55-0.953,1.216-1.262,1.997
				c-0.309,0.782-0.463,1.662-0.463,2.639v5.167h4.462v2.286h-4.462v9.367h3.134v2.176h-7.633V30.886L95.423,30.886z"></path>
			<path fill="#FFFFFF" d="M107.187,30.886h2.25V21.52h-2.25v-2.286h2.212v-5.236c0-1.376,0.215-2.593,0.645-3.65
				c0.431-1.057,1.014-1.948,1.752-2.674c0.737-0.725,1.609-1.278,2.618-1.66c1.008-0.381,2.089-0.596,3.246-0.646v2.287
				c-0.842,0.025-1.628,0.189-2.357,0.495c-0.729,0.305-1.361,0.732-1.893,1.282c-0.531,0.55-0.952,1.216-1.261,1.997
				c-0.309,0.782-0.464,1.662-0.464,2.639v5.167h4.462v2.286h-4.462v9.367h3.134v2.176h-7.633V30.886L107.187,30.886z"></path>
			<path fill="#FFFFFF" d="M140.042,30.886h2.839V23.98c-0.049-0.709-0.315-1.334-0.796-1.873c-0.482-0.539-1.216-0.833-2.204-0.882
				c-0.692,0-1.352,0.116-1.982,0.349c-0.63,0.232-1.185,0.557-1.667,0.973c-0.481,0.417-0.871,0.913-1.167,1.488
				c-0.296,0.575-0.444,1.193-0.444,1.854v4.997h2.508v2.176h-7.633v-2.176h2.839V23.98c-0.049-0.709-0.313-1.334-0.793-1.873
				c-0.479-0.539-1.211-0.833-2.194-0.882c-0.713,0-1.383,0.123-2.01,0.367c-0.627,0.245-1.187,0.576-1.678,0.992
				c-0.492,0.417-0.879,0.913-1.162,1.488c-0.283,0.575-0.424,1.207-0.424,1.892v4.923h2.544v2.176h-7.67v-2.176h2.84V21.52h-2.545
				v-2.286h4.5l0.036,0.811c0.024,0.517,0.056,0.978,0.093,1.383c0.037,0.406,0.067,0.867,0.092,1.383
				c0.517-1.18,1.303-2.114,2.36-2.802c1.057-0.688,2.286-1.045,3.688-1.07c1.302,0,2.354,0.338,3.152,1.014
				c0.799,0.676,1.272,1.567,1.419,2.674c0.541-1.131,1.328-2.022,2.36-2.674c1.033-0.651,2.225-0.989,3.577-1.014
				c1.402,0,2.514,0.381,3.338,1.143c0.823,0.763,1.259,1.758,1.309,2.987v7.817h2.508v2.176h-7.633L140.042,30.886L140.042,30.886z"></path>
			<path fill="#FFFFFF" d="M150.257,26.166c0-0.983,0.19-1.912,0.571-2.785c0.381-0.872,0.897-1.641,1.549-2.304
				c0.651-0.664,1.426-1.192,2.324-1.585c0.897-0.394,1.862-0.59,2.895-0.59c0.688,0,1.333,0.099,1.936,0.295
				c0.602,0.196,1.137,0.442,1.604,0.737c0.467,0.295,0.854,0.603,1.162,0.922c0.307,0.32,0.498,0.603,0.572,0.848
				c0-0.393,0.018-0.798,0.055-1.217c0.036-0.418,0.067-0.835,0.092-1.254h1.88v11.653h2.767v2.175h-4.794v-1.106v-1.217
				c-0.099,0.247-0.29,0.517-0.572,0.812c-0.283,0.296-0.652,0.578-1.106,0.848c-0.455,0.271-0.983,0.498-1.585,0.683
				c-0.603,0.184-1.272,0.276-2.01,0.276c-1.033,0-1.998-0.191-2.895-0.572c-0.898-0.38-1.673-0.896-2.324-1.548
				c-0.651-0.651-1.167-1.414-1.548-2.287C150.447,28.078,150.257,27.15,150.257,26.166z M152.543,26.129
				c0,0.708,0.129,1.36,0.388,1.958c0.259,0.598,0.611,1.117,1.055,1.556c0.444,0.438,0.974,0.787,1.591,1.042
				c0.617,0.257,1.283,0.385,2,0.385c0.715,0,1.381-0.128,1.998-0.385c0.617-0.255,1.147-0.604,1.592-1.042
				c0.443-0.439,0.795-0.958,1.055-1.556c0.259-0.599,0.388-1.251,0.388-1.958c0-0.684-0.129-1.33-0.388-1.94
				c-0.26-0.609-0.611-1.134-1.055-1.573c-0.444-0.439-0.975-0.787-1.592-1.043c-0.617-0.256-1.283-0.384-1.998-0.384
				c-0.716,0-1.383,0.128-2,0.384c-0.617,0.257-1.147,0.604-1.591,1.043c-0.444,0.438-0.796,0.964-1.055,1.573
				C152.673,24.799,152.543,25.446,152.543,26.129z"></path>
			<path fill="#FFFFFF" d="M180.753,30.886h2.876V23.98c-0.049-0.709-0.313-1.334-0.792-1.873c-0.48-0.539-1.212-0.833-2.194-0.882
				c-0.714,0-1.384,0.123-2.01,0.367c-0.627,0.245-1.188,0.576-1.678,0.992c-0.492,0.416-0.88,0.913-1.162,1.488
				c-0.283,0.576-0.425,1.207-0.425,1.892v4.923h2.545v2.176h-7.67v-2.176h2.839v-9.404h-2.544v-2.249h4.498l0.038,0.811
				c0.023,0.517,0.056,0.978,0.092,1.383c0.036,0.406,0.068,0.867,0.092,1.383c0.492-1.18,1.284-2.12,2.379-2.821
				c1.094-0.7,2.317-1.051,3.669-1.051c1.401,0,2.508,0.381,3.319,1.143c0.812,0.762,1.241,1.758,1.29,2.987v7.817h2.509v2.176h-7.671
				V30.886L180.753,30.886z"></path>
		</g>
		<rect id="rect2" x="73.977" y="2.157" fill="#F44336" width="115.697" height="38.517"></rect>
		<g id="h">
			<path fill="#FFFFFF" d="M64.301,7.249h8.113v2.286h-2.876v21.351h2.876v2.176h-8.113v-2.176h2.95v-9.735H52.317v9.735h2.987v2.176
				h-8.15v-2.176h2.876V9.535h-2.876V7.249h8.15v2.286h-2.987v9.44H67.25v-9.44h-2.95V7.249z"></path>
		</g>
		<g id="close">
			<path fill="#FFFFFF" d="M78.878,24.066c-0.512,0.447-0.917,1-1.214,1.661c-0.298,0.661-0.495,1.38-0.596,2.156
				c-0.099,0.777-0.148,1.496-0.148,2.156v7.386c0,1.785-0.124,3.148-0.371,4.089c-0.248,0.942-0.587,1.619-1.017,2.033
				c-0.429,0.412-0.95,0.644-1.561,0.693c-0.611,0.05-1.265,0.075-1.959,0.075h-2.329v-1.983h2.627c1.044,0,1.743-0.389,2.096-1.164
				c0.354-0.777,0.531-2.19,0.531-4.238v-6.989c0-1.322,0.098-2.42,0.293-3.297c0.195-0.875,0.438-1.611,0.73-2.206
				c0.293-0.595,0.626-1.065,0.999-1.412c0.375-0.348,0.757-0.636,1.146-0.868c-0.39-0.231-0.771-0.513-1.146-0.844
				c-0.373-0.332-0.706-0.787-0.999-1.367c-0.292-0.58-0.535-1.309-0.73-2.186c-0.195-0.878-0.293-1.996-0.293-3.355V7.349
				c0-2.02-0.177-3.42-0.531-4.198c-0.353-0.778-1.052-1.168-2.096-1.168h-2.627V0h2.329c0.661,0,1.281,0.025,1.858,0.074
				c0.579,0.049,1.1,0.248,1.562,0.595c0.462,0.347,0.826,0.917,1.09,1.71c0.266,0.793,0.396,1.951,0.396,3.47v8.526
				c0,0.662,0.05,1.38,0.148,2.157c0.101,0.776,0.298,1.496,0.596,2.156c0.297,0.662,0.702,1.215,1.214,1.661
				c0.514,0.446,1.165,0.686,1.958,0.719v2.28C80.043,23.38,79.392,23.62,78.878,24.066z"></path>
			</g>
		</g>
	</svg>
